<svg xmlns="http://www.w3.org/2000/svg" viewBox="0 0 217.35 252.64"><title>Path 12</title><g id="Layer_2" data-name="Layer 2"><g id="Layer_1-2" data-name="Layer 1"><path id="Path_12" data-name="Path 12" d="M211.11,118a28.87,28.87,0,0,0,6.1-2.33c.24,3.75.94,14.07-6.34,19.47-.94-.71-2.11-1.18-2.82-1.65l3-15.48ZM90.05,71.77a53,53,0,0,1,14.78-11c-50.91,68.74,48.8,112.61,27.92,171.5,16.66-9.15,25.34-23.46,25.81-38.71C160,153.19,97.8,142.39,131.11,83c-12.67,39.88-1.17,54,27.45,75.07-5.16-12.43,2.11-30.5,17.37-39.88l-23-9.62,31.67,8c-14.31,7.28-27.92,31.44-16.19,44.58,7.74,8.68,23,3.05,29.56,19.47,9.15-5.4,9.62-12,10.33-20.65a20,20,0,0,1,2.11,12c9.62-9.16,8.44-28.39-4.93-34.49a73.25,73.25,0,0,0-15,6.34c-7.74,4-4.22,8.69-14.08,8,0,0-3.75-3.52,9.62-10.56a106.32,106.32,0,0,1,17.83-7.74l3-15.25a23.76,23.76,0,0,0-5.63-5.86c-2.81-2.34-7.27-4.68-10.32-7-1.17-.94-2.82-1.17-3.05-2.11,2.34-4.93,15-3.29,19.94-2.82a30,30,0,0,1,8.45-.7c-9.62-8.92-34.26-27-45.76-35.9a71.12,71.12,0,0,0-8.68-16.19,33.93,33.93,0,0,1,11.73,14.32l6.57,4.22c4-23-4.46-61.46-46.46-57.95a35.79,35.79,0,0,1,11.27,20.88C100.12-33.8,7,16.65,11.67,73.19c3.05-6.1,21.82-24.87,38.48-27C14,68-20.92,119.38,15.21,161.85,4.42,126,26.24,87.24,52.52,72.69c-77.19,84,.23,124.58,28.85,172.21,28.39-54.44-75.3-63.35-36.13-144.29-13.6,52.56,14.55,77.66,41.06,95.25C61.9,159,64.72,116.8,85.83,78.56,69.18,92.87,54.63,114,57.21,148.47c-8.45-29.32,1.88-55.6,23.46-74.84-14.55-16.89-12-45,10.32-50.2a27.83,27.83,0,0,1,30.5,16.65C99.21,9.82,57,40.79,90.05,71.76ZM36.33,38C56.74,7,104.83-.74,129.7,26.24,98,5.59,60.73,15.68,36.33,38Zm83.05,109.55c-23.46-36.13-25.1-71.09,12-96.66C98.74,85.11,106.48,115.61,119.38,147.52ZM83.72,107c3.75,52.55,66.86,89.62,37.07,145.69C114,208.77,59.56,176.86,83.72,107Zm31.91-63.81c-5.87,5.63-13.61.23-27.69,9.15C84.89,31.41,109.76,32.34,115.63,43.14ZM160.2,72.23c3.52,1.4,21.12,22.28,23.7,26.74-8.22-7-15-13.14-24.17-19.94l-7,3,1.4-4.22-14.78-4.22,12.2-4.46c5.87-2.11,4-4.68,1.18-7.75,4.92,1.41,9.15,4,7.5,10.8ZM158.09,238.1a36.12,36.12,0,0,0-.23-22.29c7.27-13.14,10.56-32.85,4.22-46.69C189.06,188.59,195.63,225.66,158.09,238.1Z"/></g></g></svg>